<svg xmlns="http://www.w3.org/2000/svg" width="36" height="36" viewBox="0 0 36 36" fill="none">
  <path fill-rule="evenodd" clip-rule="evenodd" d="M18.1539 0.587463L34.7746 11.8663L32.0051 15.9474L27.6769 13.0102L27.7747 12.8663L15.4822 4.52457L18.1539 0.587463ZM6.93515 17.1403L6.92557 17.1338L15.4822 4.52457L11.2283 1.63792L0 18.1842L4.26342 21.0774L1.79088 24.721L17.5462 35.4126L20.0049 31.7894L24.3332 34.7265L35.4777 18.3038L32.0051 15.9474L23.5462 28.4126L22.6905 27.8319L28.7746 18.8663L25.3021 16.5098L27.6769 13.0102L18.9314 7.07548L16.5565 10.5751L13.0192 8.17466L6.93515 17.1403ZM10.4725 19.5407L16.5565 10.5751L25.3021 16.5098L19.218 25.4755L10.4725 19.5407ZM10.4725 19.5407L7.80072 23.4778L4.26342 21.0774L6.93515 17.1403L10.4725 19.5407ZM19.218 25.4755L16.5463 29.4126L7.80072 23.4778L7.78688 23.4982L20.0049 31.7894L22.6905 27.8319L19.218 25.4755Z" fill="white"/>
</svg>