<svg width="36" height="35" viewBox="0 0 36 35" fill="none" xmlns="http://www.w3.org/2000/svg">
<path fill-rule="evenodd" clip-rule="evenodd" d="M18.1539 0.078125L34.7746 11.3569L32.0051 15.438L27.6769 12.5009L27.7747 12.3569L15.4822 4.01524L18.1539 0.078125ZM6.93515 16.6309L6.92557 16.6244L15.4822 4.01524L11.2283 1.12858L0 17.6749L4.26342 20.568L1.79088 24.2116L17.5462 34.9032L20.0049 31.2801L24.3332 34.2172L35.4777 17.7945L32.0051 15.438L23.5462 27.9032L22.6905 27.3225L28.7746 18.3569L25.3021 16.0005L27.6769 12.5009L18.9314 6.56614L16.5565 10.0657L13.0192 7.66532L6.93515 16.6309ZM10.4725 19.0314L16.5565 10.0657L25.3021 16.0005L19.218 24.9661L10.4725 19.0314ZM10.4725 19.0314L7.80072 22.9685L4.26342 20.568L6.93515 16.6309L10.4725 19.0314ZM19.218 24.9661L16.5463 28.9032L7.80072 22.9685L7.78688 22.9889L20.0049 31.2801L22.6905 27.3225L19.218 24.9661Z" fill="#18181A"/>
</svg>
